<svg width="107" height="97" viewBox="0 0 107 97" fill="none" xmlns="http://www.w3.org/2000/svg">
<path d="M53.3965 0H56.6181C57.0641 0.147594 57.8431 0.200996 58.3327 0.277203C60.5766 0.62627 62.6437 1.48605 64.7388 2.25617L77.7737 7.04379C79.1664 7.55469 80.8221 8.11659 82.13 8.73522C83.4498 9.35382 84.6777 10.1208 85.7847 11.018C87.3954 12.327 88.503 13.7166 89.8328 15.2512C91.218 16.8625 92.6178 18.4636 94.0322 20.0541L98.2324 24.7931C99.7224 26.4753 101.214 28.0222 102.29 29.9637C103.444 32.0447 103.977 34.3156 104.655 36.5534C105.147 38.1807 105.769 40.0562 105.999 41.7127C106.181 43.0213 106.144 44.711 106.141 46.0432C106.134 49.0789 106.331 51.9486 105.189 54.8641C104.692 56.1301 104.107 57.3254 103.528 58.564L98.5178 69.2852C97.8055 70.8109 97.2456 72.1299 96.2901 73.5443C95.0352 75.4022 93.5063 76.7345 91.8573 78.2974L83.4878 86.2608C81.6183 88.0465 80.0691 89.497 77.8437 90.94C76.2394 91.9803 74.812 93.1994 72.9682 93.9447C69.1888 95.629 65.6121 95.9685 61.4705 95.4471C60.2519 95.2936 58.0191 95.0571 56.8176 95.023C54.2136 94.9494 51.2109 95.4766 48.5942 95.7259C47.9785 95.7846 45.1166 96.0356 44.6841 96.2H40.2041C39.8063 96.0679 38.0211 95.976 37.4841 95.9349C35.1338 95.7556 32.9981 95.231 30.881 94.2876C29.104 93.4957 27.6842 92.461 26.1171 91.386L16.5709 84.8364C13.7712 82.9144 11.2846 81.4051 9.3672 78.6595C8.59892 77.5594 8.13437 76.677 7.4995 75.514L3.56162 68.3022C2.87735 67.0508 2.18955 65.8485 1.71384 64.5145C0.902293 62.2386 0.669936 59.8189 0.985959 57.4468C1.16877 56.0746 1.48717 54.7087 1.72317 53.3446C1.89315 52.3619 2.13978 51.3486 2.22419 50.3592C2.32964 49.1231 2.34576 47.8663 2.38766 46.6275L2.57902 41.2916C2.61019 40.3762 2.63241 39.4514 2.69264 38.5386C2.86016 36.7636 3.28268 34.9563 3.77314 33.2239C4.6893 29.9877 5.10727 26.4653 6.7958 23.4707C8.30044 20.8025 10.4711 18.673 13.2342 17.0555C16.3349 15.2404 19.9354 14.5357 23.2944 13.2232C28.3487 11.0965 33.4061 8.8985 38.4335 6.71728C41.5972 5.34464 44.0462 2.87394 47.3461 1.523C48.6696 0.980742 50.0555 0.572309 51.4784 0.305127C52.036 0.204579 52.8954 0.162422 53.3965 0Z" fill="black"/>
<path d="M54.1078 1.52311C54.9778 1.43849 56.181 1.51835 57.0501 1.5967C59.4351 1.81172 61.5898 2.69572 63.7869 3.50363L76.8155 8.29913C78.1357 8.78505 79.7874 9.34859 81.0482 9.91228C82.0612 10.3711 83.0206 10.9208 83.912 11.553C84.6962 12.1095 85.4226 12.7293 86.0823 13.4048C86.9864 14.3253 87.9447 15.4819 88.8033 16.4629L97.3096 26.1634C98.5797 27.6118 99.9305 29.0252 100.852 30.6872C101.916 32.6067 102.408 34.7276 103.044 36.7873C103.6 38.8223 104.516 41.071 104.493 43.2049C104.461 46.2489 104.788 49.5426 104.184 52.5385C103.846 54.2132 102.932 55.9957 102.219 57.562L99.7997 62.8817L97.3173 68.3683C96.8451 69.4126 96.3211 70.6672 95.7807 71.6592C95.2798 72.5793 94.6727 73.4489 93.9696 74.2536C93.1871 75.1562 92.1063 76.131 91.2186 76.9747L82.6454 85.1364C81.7584 85.9812 80.6342 87.1702 79.6656 87.8887C77.9127 89.189 75.8187 90.7918 73.929 91.8986C71.723 93.1842 69.2082 93.9725 66.5954 94.1976C63.5079 94.4481 60.4496 93.7967 57.3683 93.6255C55.6678 93.5308 54.2823 93.683 52.6051 93.8668C52.1593 93.9626 50.5019 94.0992 49.9216 94.1638C48.1122 94.3656 46.2836 94.6114 44.4665 94.7435C42.7663 94.8669 41.0458 94.6153 39.3873 94.5325C33.9437 94.2604 31.671 93.2554 27.4901 90.387L16.9094 83.1316C12.3882 80.0326 11.3142 79.2724 8.77712 74.6557L5.03882 67.8407C3.60282 65.218 2.68524 63.4839 2.4704 60.4523C2.23687 57.1569 3.48456 54.1381 3.80646 50.8911C3.91867 49.7594 3.94461 48.4493 3.98938 47.3043L4.2016 41.5892C4.23423 40.6633 4.23733 39.4439 4.34192 38.5433C4.55676 36.6935 5.13817 34.614 5.61471 32.7894C6.75342 28.3003 7.19182 24.5505 10.6839 20.9744C14.5543 17.0108 18.9206 16.4622 24.0454 14.534C26.0521 13.779 28.277 12.7195 30.292 11.8605C33.2803 10.5865 36.3218 9.30237 39.2906 7.98336C40.0946 7.62791 40.8723 7.22577 41.6186 6.77943C43.838 5.42891 45.614 3.81937 48.1812 2.81601C50.2621 2.0028 51.8329 1.64402 54.1078 1.52311Z" fill="#AFAFAF"/>
<path d="M90.8564 32.5241C92.1258 32.4077 94.0746 32.693 95.0892 33.4237C97.6978 35.3018 98.2033 37.6082 97.9146 40.4542C97.5378 44.1699 96.0374 47.421 93.5988 50.4229C91.8949 52.5199 89.5393 54.4126 86.9563 55.5692C86.1164 55.9301 85.1154 56.144 84.1959 56.2667L84.0082 56.284C79.8548 56.6449 77.4116 53.7653 77.1279 50.2698C76.759 45.7228 79.054 41.0131 82.1782 37.5353C83.8189 35.709 86.2122 34.0229 88.5498 33.0128C89.2284 32.7345 90.1175 32.5829 90.8564 32.5241Z" fill="black"/>
<path d="M91.2095 34.027C92.3501 33.8735 93.498 34.1378 94.366 34.83C95.5687 35.8078 96.2893 37.1796 96.3677 38.6401C96.4009 39.2154 96.3398 39.8345 96.2831 40.4348C95.7414 46.1608 91.5722 51.9903 85.7797 54.4533C85.2732 54.6687 84.4285 54.7679 83.8854 54.7949C82.8377 54.8748 81.531 54.6029 80.6963 54.0086C79.4682 53.134 78.9498 51.5615 78.7885 50.2141C78.3228 46.3259 80.5729 41.7063 83.2363 38.7316C85.1848 36.5556 88.0405 34.3363 91.2095 34.027Z" fill="#AFAFAF"/>
<path d="M43.1774 20.1242C45.1929 19.9814 47.6219 20.3662 49.2081 21.5629C52.8327 24.2973 51.199 28.5737 48.5948 31.3627C45.4059 34.7361 40.8702 36.8318 35.9781 37.1929C34.9919 37.2399 34.0672 37.2944 33.1005 37.0894C30.4828 36.5342 28.0968 34.7192 27.9465 32.1678C27.8048 29.7641 29.089 27.5335 30.7968 25.7839C33.8367 22.6698 38.59 20.3985 43.1774 20.1242Z" fill="black"/>
<path d="M44.057 21.6285C44.1038 21.6255 44.1508 21.623 44.1975 21.6215C45.8584 21.5732 47.2216 21.9674 48.4472 22.9984C51.1799 25.2972 48.7083 29.1554 46.6675 31.0337C43.6106 33.847 39.704 35.5867 35.318 35.6879C28.1872 35.5474 28.4333 30.4129 32.4357 26.4804C35.4275 23.5126 39.6182 21.7632 44.057 21.6285Z" fill="#AFAFAF"/>
<path d="M51.5465 70.0163C53.9477 69.8235 57.1572 70.4552 58.8941 71.9317C61.6891 74.3077 59.8506 77.59 56.7519 78.7649C54.8894 79.4712 53.8808 79.8708 51.8078 79.9061C49.1713 79.9307 46.7841 79.6423 44.6731 78.1048C42.2906 76.3961 42.7755 73.4528 45.1091 71.918C47.0522 70.6397 49.1961 70.1508 51.5465 70.0163Z" fill="black"/>
<path d="M51.0041 71.4689C53.0228 71.2209 55.8222 71.6889 57.4615 72.8044C58.4069 73.4476 58.9005 74.3987 58.4317 75.4426C57.5903 77.3153 54.438 78.2059 52.4243 78.3579C50.4248 78.6275 47.4935 78.2194 45.9149 77.0784C43.6293 75.4259 45.1827 73.3658 47.2733 72.4884C48.6831 71.8967 49.4305 71.622 51.0041 71.4689Z" fill="#AFAFAF"/>
<path d="M66.9375 22.61C67.7934 22.5095 68.9673 22.6993 69.6937 23.1391C72.1011 24.5958 72.072 27.801 71.4084 30.058C70.5539 32.9639 68.0742 36.1364 64.6384 36.7657C61.3753 37.1116 59.7201 34.9785 59.6438 32.214C59.5525 28.9135 61.4443 25.4782 64.4017 23.5476C65.2156 23.0162 65.9347 22.7301 66.9375 22.61Z" fill="black"/>
<path d="M67.471 24.0695C68.1962 23.9936 69.0005 24.33 69.3813 24.8692C71.7409 28.2127 68.2648 34.9197 64.0797 35.3221C62.4076 35.3199 61.7295 34.4409 61.4031 33.0686C60.6479 29.8923 63.6096 24.4061 67.471 24.0695Z" fill="#AFAFAF"/>
<path d="M19.216 46.8511C19.9145 46.7556 21.1094 47.119 21.6567 47.5029C25.0322 49.8703 23.5226 55.1902 21.3958 57.8115C20.0491 59.4711 18.3514 60.74 16.1296 61.0613C13.52 61.2264 11.7587 59.4685 11.5309 57.2123C11.2771 54.3992 12.2657 51.6098 14.2807 49.4537C15.5607 48.0647 17.182 47.0131 19.216 46.8511Z" fill="black"/>
<path d="M19.2666 48.4485C19.6554 48.3933 20.4602 48.5677 20.7312 48.7867C23.2109 50.7904 21.5729 55.1399 19.9234 57.1473C19.1544 58.0834 18.0143 59.0341 16.823 59.4388C16.5593 59.5283 16.1381 59.5769 15.8666 59.6117C15.2224 59.548 14.8444 59.5181 14.2978 59.1374C13.5951 58.648 13.186 57.8564 13.0917 57.065C12.8259 54.8368 13.923 52.4038 15.4238 50.6711C16.398 49.5464 17.6675 48.6116 19.2666 48.4485Z" fill="#AFAFAF"/>
<path d="M83.8131 71.0683C83.9619 71.064 84.0326 71.0647 84.1783 71.1066C84.4306 71.1794 84.6378 71.3443 84.7494 71.5615C84.9589 71.9629 84.7076 72.2984 84.3146 72.4897C83.6246 72.8258 82.8828 73.065 82.1699 73.3606C80.9532 73.8596 79.7696 74.422 78.6248 75.0444C74.6347 77.2061 71.1315 80.029 68.2989 83.3646C67.6221 84.1613 66.9857 84.9854 66.3917 85.8341C66.0189 86.3771 65.4833 87.4775 64.8452 87.7073C64.1811 87.7312 64.0207 87.5247 63.7694 86.9967C63.7939 86.9188 63.8401 86.7596 63.8808 86.692C68.2935 79.3564 75.3176 74.1413 83.8131 71.0683Z" fill="black"/>
<path d="M55.7852 8.31422C56.1136 8.36698 56.7407 8.39401 57.0911 8.41992C57.8566 8.47304 58.6206 8.54158 59.3827 8.62551C62.3299 8.94181 65.228 9.55779 68.0224 10.4618C71.9589 11.719 75.5494 13.7291 78.5485 16.3549C79.199 16.9301 80.8954 18.1683 79.1809 18.7035C78.9465 18.6992 78.7449 18.6996 78.5647 18.5506C77.9649 18.0548 77.4249 17.4968 76.829 16.9909C75.5433 15.915 74.1435 14.9561 72.6498 14.1282C67.9844 11.5123 62.3694 10.3096 56.9518 9.96397C56.3208 9.92371 55.1386 9.99747 55.0609 9.20358C55.0144 8.72936 55.323 8.45607 55.7852 8.31422Z" fill="black"/>
<path d="M61.4886 44.3871C62.2089 44.3407 62.8799 44.7837 62.5731 45.4581C59.8682 51.4048 54.5189 55.8775 48.0532 58.4282C46.8196 58.9148 45.4597 59.4589 44.1555 59.7603C43.7509 59.8001 43.3539 59.7936 43.1037 59.4381C42.9573 59.2303 42.9671 58.921 43.0307 58.6899C43.1028 58.4278 43.4643 58.3023 43.7131 58.2147C44.4449 57.9633 45.1966 57.7501 45.9241 57.4866C48.4088 56.6045 50.7613 55.4443 52.9264 54.0326C56.0577 51.9516 58.6967 49.2024 60.3398 45.9952C60.5687 45.5484 60.7933 45.0906 61.0716 44.6672C61.1504 44.5477 61.357 44.4545 61.4886 44.3871Z" fill="black"/>
<path d="M23.9986 75.4302C24.2249 75.4283 24.5581 75.4774 24.709 75.6393C25.1619 76.1248 25.5366 76.7287 25.9155 77.2625C26.3933 77.9404 26.8955 78.604 27.4215 79.2521C30.1151 82.6349 33.3497 85.807 37.4074 87.8689C38.0571 88.1991 39.9489 88.736 39.7163 89.5598C39.6344 89.8495 39.3341 90.0105 39.0539 90.1302C38.326 90.2027 37.158 89.5408 36.5097 89.209C30.9178 86.3461 26.8121 81.5697 23.512 76.6902C23.1174 76.1068 23.3564 75.6979 23.9986 75.4302Z" fill="black"/>
<path d="M21.2925 19.5801C21.9738 19.5275 22.6481 20.2959 22.1476 20.8324C21.8973 21.0868 21.5561 21.2752 21.2389 21.4532C20.0869 22.0989 19.0201 22.8793 18.0477 23.7355C16.1363 25.4233 14.6136 27.4365 13.5672 29.6591C13.1999 30.4559 12.9746 31.2492 12.5972 32.0205C12.4613 32.2984 12.2834 32.3786 11.9791 32.4598C11.3704 32.4985 11.2027 32.2913 10.9358 31.8379C11.0956 31.1701 11.4933 30.1251 11.7664 29.4923C13.2715 26.0148 15.8414 22.9969 19.175 20.792C19.75 20.4107 20.6509 19.8345 21.2925 19.5801Z" fill="black"/>
</svg>
