<?xml version="1.0" encoding="utf-8" ?><svg xmlns="http://www.w3.org/2000/svg" xmlns:xlink="http://www.w3.org/1999/xlink" width="512" height="512" viewBox="0 0 512 512"><path fill="#FF060A" d="M241.379 0L270.384 0C273.745 1.06116 282.789 1.33119 286.819 1.79827C403.903 15.3694 499.967 113.166 510.7 230.715C510.964 233.606 511.209 240.033 512 242.536L512 269.682C511.65 270.832 511.477 272.06 511.399 273.251C506.963 341.665 474.22 405.523 422.262 450.152C382.187 484.574 330.574 507.165 277.559 511.079C275.702 511.226 272.501 511.381 270.858 512L241.579 512C239.217 511.194 233.716 511.012 230.997 510.76C197.815 507.68 165.975 497.761 136.542 482.21C61.4706 442.546 8.71838 365.352 1.21907 280.492C1.00633 278.085 0.773235 273.051 0 270.874L0 240.908C0.898269 238.856 1.45728 228.48 1.76475 225.764C13.3113 123.774 89.3203 35.8191 188.311 9.11632C199.593 6.07289 210.886 3.75774 222.486 2.14508C228.717 1.2788 235.014 1.0854 241.177 0.0712795C241.244 0.0475197 241.312 0.0237598 241.379 0ZM258.624 460.61C371.601 459.145 462.011 366.392 460.584 253.414C459.156 140.437 366.433 49.9963 253.455 51.3859C140.424 52.7762 49.9319 145.553 51.3597 258.583C52.7874 371.614 145.594 462.075 258.624 460.61Z"/><path fill="#FF060A" d="M255.715 102.476C340.473 102.335 409.308 170.909 409.49 255.667C409.673 340.425 341.132 409.294 256.374 409.517C171.558 409.741 102.632 341.143 102.449 256.327C102.267 171.51 170.898 102.617 255.715 102.476ZM259.373 358.239C315.867 356.36 360.129 309.018 358.209 252.525C356.289 196.033 308.916 151.805 252.425 153.765C195.991 155.724 151.818 203.039 153.736 259.474C155.654 315.909 202.937 360.116 259.373 358.239Z"/><path fill="#FF060A" d="M253.888 204.862C282.071 203.711 305.873 225.578 307.109 253.757C308.345 281.936 286.55 305.803 258.375 307.124C230.08 308.45 206.089 286.542 204.847 258.243C203.606 229.944 225.586 206.019 253.888 204.862Z"/></svg>